G75*
%MOIN*%
%OFA0B0*%
%FSLAX24Y24*%
%IPPOS*%
%LPD*%
%AMOC8*
5,1,8,0,0,1.08239X$1,22.5*
%
%ADD10C,0.0436*%
%ADD11R,0.0236X0.0236*%
%ADD12C,0.0197*%
%ADD13R,0.0350X0.0275*%
%ADD14C,0.0050*%
%ADD15R,0.0275X0.0350*%
%ADD16C,0.0079*%
%ADD17C,0.0179*%
D10*
X004926Y000966D03*
X005426Y000966D03*
X005926Y000966D03*
X006426Y000966D03*
X006926Y000966D03*
X007426Y000966D03*
X007926Y000966D03*
X008426Y000966D03*
X008926Y000966D03*
X009426Y000966D03*
X009926Y000966D03*
X010426Y000966D03*
X010926Y000966D03*
X011426Y000966D03*
X011926Y000966D03*
X012926Y000966D03*
X013426Y002966D03*
X013426Y003466D03*
X013426Y003966D03*
X013426Y004466D03*
X013426Y004966D03*
X013426Y005466D03*
X012926Y005966D03*
X012426Y005966D03*
X011926Y005966D03*
X011426Y005966D03*
X010926Y005966D03*
X010426Y005966D03*
X009926Y005966D03*
X009426Y005966D03*
X008926Y005966D03*
X008426Y005966D03*
X007926Y005966D03*
X007426Y005966D03*
X006926Y005966D03*
X006426Y005966D03*
D11*
X008413Y005154D03*
X009083Y005154D03*
X009083Y004754D03*
X008413Y004754D03*
X010841Y004990D03*
X010841Y005390D03*
X011839Y005390D03*
X011839Y004990D03*
X004437Y002319D03*
X004437Y001919D03*
D12*
X001248Y000800D02*
X000658Y000800D01*
X000658Y000800D01*
X001248Y000800D01*
X001248Y000800D01*
X001248Y001115D02*
X000658Y001115D01*
X000658Y001115D01*
X001248Y001115D01*
X001248Y001115D01*
X001248Y001430D02*
X000658Y001430D01*
X000658Y001430D01*
X001248Y001430D01*
X001248Y001430D01*
X001248Y001745D02*
X000658Y001745D01*
X000658Y001745D01*
X001248Y001745D01*
X001248Y001745D01*
X001248Y002060D02*
X000658Y002060D01*
X000658Y002060D01*
X001248Y002060D01*
X001248Y002060D01*
X001248Y002375D02*
X000658Y002375D01*
X000658Y002375D01*
X001248Y002375D01*
X001248Y002375D01*
X001248Y002690D02*
X000658Y002690D01*
X000658Y002690D01*
X001248Y002690D01*
X001248Y002690D01*
X001248Y003005D02*
X000658Y003005D01*
X000658Y003005D01*
X001248Y003005D01*
X001248Y003005D01*
X001248Y003320D02*
X000658Y003320D01*
X000658Y003320D01*
X001248Y003320D01*
X001248Y003320D01*
X001248Y003635D02*
X000658Y003635D01*
X000658Y003635D01*
X001248Y003635D01*
X001248Y003635D01*
X001248Y003950D02*
X000658Y003950D01*
X000658Y003950D01*
X001248Y003950D01*
X001248Y003950D01*
X001248Y004265D02*
X000658Y004265D01*
X000658Y004265D01*
X001248Y004265D01*
X001248Y004265D01*
X001248Y004580D02*
X000658Y004580D01*
X000658Y004580D01*
X001248Y004580D01*
X001248Y004580D01*
X001248Y004895D02*
X000658Y004895D01*
X000658Y004895D01*
X001248Y004895D01*
X001248Y004895D01*
X001248Y005210D02*
X000658Y005210D01*
X000658Y005210D01*
X001248Y005210D01*
X001248Y005210D01*
X001248Y005525D02*
X000658Y005525D01*
X000658Y005525D01*
X001248Y005525D01*
X001248Y005525D01*
X001248Y005840D02*
X000658Y005840D01*
X000658Y005840D01*
X001248Y005840D01*
X001248Y005840D01*
X001248Y006155D02*
X000658Y006155D01*
X000658Y006155D01*
X001248Y006155D01*
X001248Y006155D01*
X001514Y005978D02*
X001514Y006568D01*
X001514Y006568D01*
X001514Y005978D01*
X001514Y005978D01*
X001514Y006174D02*
X001514Y006174D01*
X001514Y006370D02*
X001514Y006370D01*
X001514Y006566D02*
X001514Y006566D01*
X001829Y006568D02*
X001829Y005978D01*
X001829Y006568D02*
X001829Y006568D01*
X001829Y005978D01*
X001829Y005978D01*
X001829Y006174D02*
X001829Y006174D01*
X001829Y006370D02*
X001829Y006370D01*
X001829Y006566D02*
X001829Y006566D01*
X002144Y006568D02*
X002144Y005978D01*
X002144Y006568D02*
X002144Y006568D01*
X002144Y005978D01*
X002144Y005978D01*
X002144Y006174D02*
X002144Y006174D01*
X002144Y006370D02*
X002144Y006370D01*
X002144Y006566D02*
X002144Y006566D01*
X002459Y006568D02*
X002459Y005978D01*
X002459Y006568D02*
X002459Y006568D01*
X002459Y005978D01*
X002459Y005978D01*
X002459Y006174D02*
X002459Y006174D01*
X002459Y006370D02*
X002459Y006370D01*
X002459Y006566D02*
X002459Y006566D01*
X002813Y006568D02*
X002813Y005978D01*
X002813Y006568D02*
X002813Y006568D01*
X002813Y005978D01*
X002813Y005978D01*
X002813Y006174D02*
X002813Y006174D01*
X002813Y006370D02*
X002813Y006370D01*
X002813Y006566D02*
X002813Y006566D01*
X003128Y006568D02*
X003128Y005978D01*
X003128Y006568D02*
X003128Y006568D01*
X003128Y005978D01*
X003128Y005978D01*
X003128Y006174D02*
X003128Y006174D01*
X003128Y006370D02*
X003128Y006370D01*
X003128Y006566D02*
X003128Y006566D01*
X003383Y006155D02*
X003955Y006155D01*
X003383Y006155D02*
X003383Y006155D01*
X003955Y006155D01*
X003955Y006155D01*
X003945Y005840D02*
X003393Y005840D01*
X003393Y005840D01*
X003945Y005840D01*
X003945Y005840D01*
X003945Y005525D02*
X003355Y005525D01*
X003355Y005525D01*
X003945Y005525D01*
X003945Y005525D01*
X003945Y005210D02*
X003355Y005210D01*
X003355Y005210D01*
X003945Y005210D01*
X003945Y005210D01*
X003945Y004895D02*
X003355Y004895D01*
X003355Y004895D01*
X003945Y004895D01*
X003945Y004895D01*
X003945Y004580D02*
X003355Y004580D01*
X003355Y004580D01*
X003945Y004580D01*
X003945Y004580D01*
X003945Y004265D02*
X003355Y004265D01*
X003355Y004265D01*
X003945Y004265D01*
X003945Y004265D01*
X003945Y003950D02*
X003355Y003950D01*
X003355Y003950D01*
X003945Y003950D01*
X003945Y003950D01*
X003945Y003635D02*
X003355Y003635D01*
X003355Y003635D01*
X003945Y003635D01*
X003945Y003635D01*
X003945Y003320D02*
X003355Y003320D01*
X003355Y003320D01*
X003945Y003320D01*
X003945Y003320D01*
X003945Y003005D02*
X003355Y003005D01*
X003355Y003005D01*
X003945Y003005D01*
X003945Y003005D01*
X003945Y002690D02*
X003355Y002690D01*
X003355Y002690D01*
X003945Y002690D01*
X003945Y002690D01*
D13*
X005064Y005899D03*
X005464Y005899D03*
X005267Y006411D03*
X004867Y006411D03*
D14*
X004355Y006411D01*
X004358Y006292D01*
X005007Y006411D02*
X005137Y006411D01*
X005267Y006411D02*
X005539Y006411D01*
X005657Y006292D01*
X007902Y006292D01*
X007902Y005990D01*
X007926Y005966D01*
X008413Y005623D02*
X008413Y005154D01*
X009083Y005154D02*
X009437Y005154D01*
X009437Y005052D01*
X009949Y004875D02*
X010028Y004875D01*
X010028Y004403D01*
X010303Y004127D01*
X010461Y004127D01*
X010461Y003143D01*
X010421Y003103D01*
X010185Y003103D01*
X010382Y002867D02*
X010539Y002867D01*
X010579Y002907D01*
X010579Y004245D01*
X010382Y004245D01*
X010185Y004442D01*
X010185Y004993D01*
X009988Y005190D01*
X009713Y005387D02*
X010736Y005387D01*
X010841Y005390D01*
X010756Y005387D01*
X010815Y005446D02*
X011327Y005446D01*
X011839Y005446D01*
X011839Y005390D01*
X012193Y005426D02*
X012193Y004324D01*
X012508Y004324D01*
X012508Y003851D01*
X012232Y003576D01*
X012232Y003143D01*
X012075Y002985D01*
X012075Y002879D01*
X012272Y002946D02*
X012272Y002710D01*
X012114Y002552D01*
X012081Y002552D01*
X011839Y002710D02*
X011760Y002710D01*
X011760Y002277D01*
X011445Y002159D02*
X010894Y002159D01*
X010697Y001922D01*
X008768Y001922D01*
X008768Y001568D01*
X008807Y001568D01*
X009043Y001529D02*
X009426Y001186D01*
X009426Y000966D01*
X009909Y000949D02*
X009909Y000505D01*
X012390Y000505D01*
X012390Y001174D01*
X012547Y001332D01*
X012272Y001411D02*
X011996Y001686D01*
X009358Y001686D01*
X009319Y001647D01*
X009319Y001529D01*
X009043Y001529D02*
X009043Y001804D01*
X010736Y001804D01*
X010933Y002040D01*
X011563Y002040D01*
X011563Y002710D01*
X011720Y002867D01*
X011720Y003103D01*
X012035Y003103D01*
X012114Y003182D01*
X012114Y003379D01*
X011602Y003891D01*
X011602Y003970D01*
X011760Y004166D02*
X011917Y004009D01*
X012114Y004009D01*
X012279Y003812D02*
X012390Y003885D01*
X012390Y004206D01*
X011878Y004206D01*
X011799Y004285D01*
X011799Y004895D01*
X011839Y004990D01*
X011819Y004914D01*
X012311Y005033D02*
X012311Y004442D01*
X012626Y004442D01*
X012626Y003773D01*
X012350Y003497D01*
X012350Y003025D01*
X012272Y002946D01*
X012587Y002788D02*
X012705Y002670D01*
X012823Y002670D01*
X012941Y002552D01*
X013059Y002552D01*
X013256Y002670D02*
X013256Y002316D01*
X013335Y002237D01*
X013768Y002237D01*
X013768Y005899D01*
X013531Y006135D01*
X013217Y006135D01*
X013059Y006292D01*
X012252Y006292D01*
X011926Y005966D01*
X011870Y006411D02*
X011426Y005966D01*
X010926Y005966D02*
X010611Y005694D01*
X010421Y005505D01*
X008728Y005505D01*
X008728Y004796D01*
X008512Y004796D01*
X008413Y004754D01*
X009083Y004754D02*
X009083Y004403D01*
X008886Y004206D01*
X008886Y003536D01*
X009004Y003536D01*
X009083Y003458D01*
X009083Y002985D01*
X009004Y002907D01*
X009004Y002395D01*
X007823Y002395D01*
X007823Y001371D01*
X008295Y001371D01*
X008295Y002159D01*
X010618Y002159D01*
X010815Y002395D01*
X011209Y002395D01*
X011209Y002828D01*
X011366Y002985D01*
X011366Y003694D01*
X011434Y003694D01*
X011484Y003497D02*
X011484Y002946D01*
X011327Y002788D01*
X011327Y002277D01*
X010854Y002277D01*
X010657Y002040D01*
X008492Y002040D01*
X008492Y001568D01*
X008059Y001647D02*
X008059Y002277D01*
X010579Y002277D01*
X010776Y002513D01*
X011091Y002513D01*
X011091Y002867D01*
X011253Y003029D01*
X011253Y003148D01*
X011071Y003329D01*
X011071Y003980D01*
X011298Y003980D01*
X011445Y004166D02*
X011331Y004281D01*
X011331Y005466D01*
X011327Y005446D01*
X010609Y005190D02*
X010609Y004560D01*
X010815Y004560D01*
X010815Y002828D01*
X010894Y002710D01*
X010697Y002592D02*
X010579Y002474D01*
X010185Y002474D01*
X010697Y002592D02*
X010697Y004442D01*
X010382Y004442D01*
X010382Y004914D01*
X010500Y005190D02*
X010609Y005190D01*
X010795Y004914D02*
X011130Y004914D01*
X012193Y005426D02*
X012429Y005426D01*
X012429Y005623D02*
X012665Y005623D01*
X012665Y004993D01*
X012823Y004836D01*
X012823Y004599D01*
X012980Y004481D01*
X013059Y004403D01*
X013138Y004335D01*
X013138Y004048D01*
X012980Y003891D01*
X012980Y003576D01*
X012705Y003300D01*
X012705Y002907D01*
X012744Y002867D01*
X012931Y002869D01*
X013131Y002788D02*
X013131Y002985D01*
X012931Y003234D01*
X012587Y003340D02*
X012587Y002788D01*
X012626Y002592D02*
X012469Y002592D01*
X012469Y003418D01*
X012744Y003694D01*
X012744Y004009D01*
X012823Y004088D01*
X012823Y004206D01*
X012902Y004403D02*
X013020Y004285D01*
X013020Y004088D01*
X012862Y003930D01*
X012862Y003615D01*
X012587Y003340D01*
X012167Y003812D02*
X012067Y003712D01*
X012167Y003812D02*
X012279Y003812D01*
X011701Y003497D02*
X011484Y003497D01*
X011602Y003300D02*
X011602Y002907D01*
X011445Y002749D01*
X011445Y002159D01*
X012626Y002592D02*
X012783Y002434D01*
X013131Y002788D02*
X013256Y002670D01*
X013492Y002899D02*
X013492Y002434D01*
X013492Y002899D02*
X013426Y002966D01*
X011917Y003300D02*
X011602Y003300D01*
X011012Y003143D02*
X010933Y003222D01*
X010933Y004206D01*
X011111Y004206D01*
X011445Y004166D02*
X011760Y004166D01*
X012547Y004560D02*
X012547Y004718D01*
X012547Y004560D02*
X012665Y004560D01*
X012744Y004481D01*
X012902Y004403D01*
X013059Y004757D02*
X012823Y004993D01*
X012823Y005623D01*
X012926Y005726D01*
X012926Y005966D01*
X012426Y005966D02*
X012426Y005627D01*
X012429Y005623D01*
X013059Y005544D02*
X013453Y005938D01*
X013492Y006371D02*
X013453Y006411D01*
X011870Y006411D01*
X010426Y005966D02*
X010426Y005824D01*
X010224Y005623D01*
X008413Y005623D01*
X008925Y005966D02*
X008926Y005966D01*
X009713Y005387D02*
X009713Y004521D01*
X009516Y004521D01*
X009516Y003536D01*
X010264Y003536D01*
X009398Y003970D02*
X009398Y002788D01*
X009437Y002749D01*
X009240Y002513D02*
X009240Y003576D01*
X009201Y003615D01*
X009398Y003970D02*
X009319Y004048D01*
X009319Y004245D01*
X008650Y004009D02*
X008650Y003064D01*
X008413Y002749D02*
X008256Y002907D01*
X006878Y002907D01*
X006878Y003891D01*
X005815Y003891D01*
X005815Y004366D01*
X005343Y004366D01*
X005343Y004226D02*
X005343Y004096D01*
X005343Y004009D02*
X005146Y004009D01*
X005028Y004245D01*
X004909Y004245D01*
X004870Y004048D02*
X004791Y004048D01*
X004673Y004166D01*
X004673Y004403D01*
X004870Y004599D01*
X004870Y005466D01*
X005343Y005466D01*
X005421Y005544D01*
X005421Y005856D01*
X005464Y005899D01*
X005324Y005899D02*
X005194Y005899D01*
X005064Y005899D02*
X004752Y005705D01*
X004752Y004757D01*
X004594Y004599D01*
X004201Y004599D01*
X004201Y004836D01*
X004161Y004875D01*
X003669Y004875D01*
X003650Y004895D01*
X003138Y004914D02*
X002902Y004914D01*
X003138Y004914D02*
X003138Y003222D01*
X003020Y003103D01*
X001760Y003103D01*
X001760Y001332D01*
X004208Y001379D02*
X004251Y001221D01*
X004251Y000505D01*
X004437Y000655D02*
X004571Y000505D01*
X008925Y000505D01*
X008925Y000966D01*
X008926Y000966D01*
X008426Y000966D02*
X008426Y000793D01*
X008256Y000623D01*
X004721Y000623D01*
X004571Y000829D01*
X004571Y001096D01*
X004791Y001332D01*
X004791Y001529D01*
X004949Y001686D02*
X004909Y001725D01*
X004673Y001725D01*
X004544Y001547D01*
X004208Y001547D01*
X004208Y001379D01*
X004437Y001332D02*
X004437Y000655D01*
X005894Y000998D02*
X005926Y000966D01*
X005894Y000998D02*
X005894Y001883D01*
X005815Y001962D01*
X005343Y001962D01*
X005343Y002192D01*
X005343Y002342D02*
X005343Y002562D01*
X005343Y002592D02*
X005224Y002592D01*
X005067Y002434D01*
X004791Y002434D01*
X004240Y002985D01*
X004240Y003320D01*
X003650Y003320D01*
X004358Y003025D02*
X004634Y002749D01*
X004909Y002946D01*
X004909Y003418D01*
X006484Y003418D01*
X006366Y003222D02*
X005579Y003222D01*
X005500Y003300D01*
X005067Y003300D01*
X005028Y003261D01*
X005028Y002710D01*
X004988Y002670D01*
X005343Y002710D02*
X005343Y002828D01*
X005343Y002832D02*
X005343Y002822D01*
X005388Y002946D02*
X005618Y002946D01*
X005776Y002788D01*
X005776Y002119D01*
X006248Y002119D01*
X006248Y001725D01*
X006484Y001922D02*
X007626Y001922D01*
X007626Y001725D01*
X007823Y001371D02*
X007783Y001292D01*
X007752Y001292D01*
X007426Y000966D01*
X005461Y001765D02*
X005421Y001804D01*
X005343Y001804D01*
X005303Y001844D01*
X004949Y001844D01*
X004831Y001962D01*
X004831Y002316D01*
X004535Y002316D01*
X004437Y002319D01*
X004221Y002669D02*
X004161Y002669D01*
X004161Y001919D01*
X004437Y001919D01*
X004949Y001686D02*
X005146Y001686D01*
X005185Y001647D01*
X004161Y002669D02*
X003669Y002669D01*
X003650Y002690D01*
X002567Y002690D01*
X002429Y002828D01*
X001760Y003103D02*
X001563Y003103D01*
X001484Y003025D01*
X000972Y003025D01*
X000953Y003005D01*
X000953Y003320D02*
X002744Y003320D01*
X002744Y003300D01*
X002941Y003615D02*
X002941Y003635D01*
X000953Y003635D01*
X000953Y004580D02*
X002882Y004580D01*
X002902Y004560D01*
X003138Y004914D02*
X003138Y005662D01*
X003098Y005702D01*
X001484Y005702D01*
X001346Y005840D01*
X000953Y005840D01*
X000953Y006155D02*
X000697Y006155D01*
X000697Y006450D01*
X001169Y006450D02*
X001514Y006450D01*
X001514Y006273D01*
X001720Y005387D02*
X002193Y005387D01*
X003650Y005210D02*
X004220Y005210D01*
X004280Y005151D01*
X004280Y004993D01*
X004437Y004836D01*
X004516Y004836D01*
X004339Y004265D02*
X003650Y004265D01*
X004339Y004265D02*
X004673Y003930D01*
X004673Y003776D01*
X004673Y003636D02*
X004673Y003506D01*
X004673Y003376D02*
X004634Y003300D01*
X004634Y003029D01*
X004358Y003025D02*
X004358Y003871D01*
X004339Y003891D01*
X004870Y004048D02*
X004988Y003930D01*
X004988Y003615D01*
X006327Y003615D01*
X006366Y003655D01*
X006642Y003655D01*
X006681Y003615D01*
X006681Y003222D01*
X006642Y003182D01*
X006406Y003182D01*
X006366Y003222D01*
X005388Y002946D02*
X005343Y002992D01*
X005343Y003966D02*
X005343Y004009D01*
X008413Y002749D02*
X008886Y002749D01*
X008886Y003340D01*
X009102Y004718D02*
X009083Y004754D01*
X012311Y005033D02*
X012429Y005033D01*
X013059Y005229D02*
X013059Y005544D01*
X012783Y001804D02*
X012926Y001701D01*
X012926Y000966D01*
X012272Y000623D02*
X012272Y001411D01*
X011917Y001292D02*
X011799Y001411D01*
X009949Y001411D01*
X009949Y001489D01*
X009634Y001489D02*
X009634Y001292D01*
X011366Y001292D01*
X011426Y001233D01*
X011426Y000966D01*
X011917Y000974D02*
X011926Y000966D01*
X011917Y000974D02*
X011917Y001292D01*
X012272Y000623D02*
X010421Y000623D01*
X010421Y000966D01*
X010426Y000966D01*
X009926Y000966D02*
X009909Y000949D01*
D15*
X005343Y002192D03*
X005343Y002592D03*
X005343Y002992D03*
X004673Y003376D03*
X004673Y003776D03*
X005343Y003966D03*
X005343Y004366D03*
D16*
X004516Y005151D02*
X004516Y005387D01*
X004201Y005387D01*
X004201Y006056D01*
X004122Y006135D01*
X003669Y006135D01*
X003669Y006155D01*
X006878Y005918D02*
X006878Y005623D01*
X007862Y005623D01*
X007862Y004166D01*
X008413Y004754D02*
X008413Y003418D01*
X010795Y004914D02*
X010841Y004990D01*
X010841Y005390D02*
X010815Y005446D01*
X006926Y005966D02*
X006878Y005918D01*
X000953Y002690D02*
X000953Y002375D01*
X000953Y002060D01*
X000953Y001745D01*
X000953Y001430D01*
X000953Y001115D01*
X000953Y000800D01*
X000953Y000820D01*
X001524Y000820D01*
D17*
X001524Y000820D03*
X001760Y001332D03*
X004251Y000505D03*
X004437Y001332D03*
X004791Y001529D03*
X005185Y001647D03*
X005461Y001765D03*
X006248Y001725D03*
X006484Y001922D03*
X007626Y001725D03*
X008059Y001647D03*
X008492Y001568D03*
X008807Y001568D03*
X009319Y001529D03*
X009634Y001489D03*
X009949Y001489D03*
X011760Y002277D03*
X012081Y002552D03*
X011839Y002710D03*
X012075Y002879D03*
X011917Y003300D03*
X011701Y003497D03*
X011434Y003694D03*
X011602Y003970D03*
X011298Y003980D03*
X011111Y004206D03*
X012114Y004009D03*
X012067Y003712D03*
X012823Y004206D03*
X012547Y004718D03*
X013059Y004757D03*
X012429Y005033D03*
X013059Y005229D03*
X012429Y005426D03*
X013453Y005938D03*
X013492Y006371D03*
X011331Y005466D03*
X010500Y005190D03*
X010382Y004914D03*
X009949Y004875D03*
X009437Y005052D03*
X009988Y005190D03*
X011130Y004914D03*
X009516Y004521D03*
X009319Y004245D03*
X008650Y004009D03*
X009201Y003615D03*
X008886Y003340D03*
X008413Y003418D03*
X008650Y003064D03*
X009437Y002749D03*
X009240Y002513D03*
X010185Y002474D03*
X010382Y002867D03*
X010185Y003103D03*
X010894Y002710D03*
X011012Y003143D03*
X010264Y003536D03*
X007862Y004166D03*
X006484Y003418D03*
X004988Y002670D03*
X004634Y003029D03*
X004221Y002669D03*
X002744Y003300D03*
X002941Y003615D03*
X004339Y003891D03*
X004909Y004245D03*
X004516Y004836D03*
X004516Y005151D03*
X002902Y004914D03*
X002902Y004560D03*
X002193Y005387D03*
X001720Y005387D03*
X001169Y006450D03*
X000697Y006450D03*
X004358Y006292D03*
X002429Y002828D03*
X012547Y001332D03*
X012783Y001804D03*
X012783Y002434D03*
X013059Y002552D03*
X013492Y002434D03*
X012931Y002869D03*
X012931Y003234D03*
M02*
