G75*
%MOIN*%
%OFA0B0*%
%FSLAX24Y24*%
%IPPOS*%
%LPD*%
%AMOC8*
5,1,8,0,0,1.08239X$1,22.5*
%
%ADD10R,0.0611X0.0237*%
%ADD11R,0.0710X0.0907*%
%ADD12R,0.0828X0.0789*%
%ADD13R,0.0828X0.0828*%
%ADD14R,0.0324X0.0671*%
%ADD15R,0.0257X0.0671*%
%ADD16C,0.0168*%
%ADD17R,0.0552X0.0297*%
%ADD18C,0.0516*%
%ADD19R,0.0848X0.0671*%
%ADD20R,0.0316X0.0316*%
%ADD21R,0.0395X0.0395*%
%ADD22R,0.0430X0.0355*%
%ADD23R,0.0356X0.0434*%
%ADD24R,0.0355X0.0430*%
%ADD25R,0.0434X0.0356*%
%ADD26R,0.0474X0.0513*%
D10*
X001965Y002828D03*
X001965Y003080D03*
X001965Y003340D03*
X001965Y003592D03*
X001965Y003851D03*
D11*
X001917Y004560D03*
X001917Y002119D03*
D12*
X000913Y001765D03*
X000913Y004914D03*
D13*
X000913Y003812D03*
X000913Y002867D03*
D14*
X008059Y002277D03*
X008807Y002277D03*
D15*
X008433Y002277D03*
D16*
X009707Y002263D02*
X009933Y002263D01*
X009707Y002263D02*
X009707Y002293D01*
X009933Y002293D01*
X009933Y002263D01*
X009933Y002459D02*
X009707Y002459D01*
X009707Y002489D01*
X009933Y002489D01*
X009933Y002459D01*
X009933Y002648D02*
X009707Y002648D01*
X009707Y002678D01*
X009933Y002678D01*
X009933Y002648D01*
X009933Y002845D02*
X009707Y002845D01*
X009707Y002875D01*
X009933Y002875D01*
X009933Y002845D01*
X009933Y003033D02*
X009707Y003033D01*
X009707Y003063D01*
X009933Y003063D01*
X009933Y003033D01*
X009933Y003260D02*
X009707Y003260D01*
X009933Y003260D02*
X009933Y003230D01*
X009707Y003230D01*
X009707Y003260D01*
X009707Y003457D02*
X009933Y003457D01*
X009933Y003427D01*
X009707Y003427D01*
X009707Y003457D01*
X009707Y003646D02*
X009933Y003646D01*
X009933Y003616D01*
X009707Y003616D01*
X009707Y003646D01*
X009707Y003842D02*
X009933Y003842D01*
X009933Y003812D01*
X009707Y003812D01*
X009707Y003842D01*
X009707Y004031D02*
X009933Y004031D01*
X009933Y004001D01*
X009707Y004001D01*
X009707Y004031D01*
X009707Y004228D02*
X009933Y004228D01*
X009933Y004198D01*
X009707Y004198D01*
X009707Y004228D01*
X010151Y004446D02*
X010151Y004672D01*
X010181Y004672D01*
X010181Y004446D01*
X010151Y004446D01*
X010151Y004613D02*
X010181Y004613D01*
X010348Y004672D02*
X010348Y004446D01*
X010348Y004672D02*
X010378Y004672D01*
X010378Y004446D01*
X010348Y004446D01*
X010348Y004613D02*
X010378Y004613D01*
X010537Y004672D02*
X010537Y004446D01*
X010537Y004672D02*
X010567Y004672D01*
X010567Y004446D01*
X010537Y004446D01*
X010537Y004613D02*
X010567Y004613D01*
X010733Y004672D02*
X010733Y004446D01*
X010733Y004672D02*
X010763Y004672D01*
X010763Y004446D01*
X010733Y004446D01*
X010733Y004613D02*
X010763Y004613D01*
X010922Y004672D02*
X010922Y004446D01*
X010922Y004672D02*
X010952Y004672D01*
X010952Y004446D01*
X010922Y004446D01*
X010922Y004613D02*
X010952Y004613D01*
X011149Y004672D02*
X011149Y004446D01*
X011119Y004446D01*
X011119Y004672D01*
X011149Y004672D01*
X011149Y004613D02*
X011119Y004613D01*
X011346Y004672D02*
X011346Y004446D01*
X011316Y004446D01*
X011316Y004672D01*
X011346Y004672D01*
X011346Y004613D02*
X011316Y004613D01*
X011534Y004672D02*
X011534Y004446D01*
X011504Y004446D01*
X011504Y004672D01*
X011534Y004672D01*
X011534Y004613D02*
X011504Y004613D01*
X011731Y004672D02*
X011731Y004446D01*
X011701Y004446D01*
X011701Y004672D01*
X011731Y004672D01*
X011731Y004613D02*
X011701Y004613D01*
X011920Y004672D02*
X011920Y004446D01*
X011890Y004446D01*
X011890Y004672D01*
X011920Y004672D01*
X011920Y004613D02*
X011890Y004613D01*
X012116Y004672D02*
X012116Y004446D01*
X012086Y004446D01*
X012086Y004672D01*
X012116Y004672D01*
X012116Y004613D02*
X012086Y004613D01*
X012334Y004228D02*
X012560Y004228D01*
X012560Y004198D01*
X012334Y004198D01*
X012334Y004228D01*
X012334Y004031D02*
X012560Y004031D01*
X012560Y004001D01*
X012334Y004001D01*
X012334Y004031D01*
X012334Y003842D02*
X012560Y003842D01*
X012560Y003812D01*
X012334Y003812D01*
X012334Y003842D01*
X012334Y003646D02*
X012560Y003646D01*
X012560Y003616D01*
X012334Y003616D01*
X012334Y003646D01*
X012334Y003457D02*
X012560Y003457D01*
X012560Y003427D01*
X012334Y003427D01*
X012334Y003457D01*
X012334Y003230D02*
X012560Y003230D01*
X012334Y003230D02*
X012334Y003260D01*
X012560Y003260D01*
X012560Y003230D01*
X012560Y003033D02*
X012334Y003033D01*
X012334Y003063D01*
X012560Y003063D01*
X012560Y003033D01*
X012560Y002845D02*
X012334Y002845D01*
X012334Y002875D01*
X012560Y002875D01*
X012560Y002845D01*
X012560Y002648D02*
X012334Y002648D01*
X012334Y002678D01*
X012560Y002678D01*
X012560Y002648D01*
X012560Y002459D02*
X012334Y002459D01*
X012334Y002489D01*
X012560Y002489D01*
X012560Y002459D01*
X012560Y002263D02*
X012334Y002263D01*
X012334Y002293D01*
X012560Y002293D01*
X012560Y002263D01*
X012116Y002045D02*
X012116Y001819D01*
X012086Y001819D01*
X012086Y002045D01*
X012116Y002045D01*
X012116Y001986D02*
X012086Y001986D01*
X011920Y002045D02*
X011920Y001819D01*
X011890Y001819D01*
X011890Y002045D01*
X011920Y002045D01*
X011920Y001986D02*
X011890Y001986D01*
X011731Y002045D02*
X011731Y001819D01*
X011701Y001819D01*
X011701Y002045D01*
X011731Y002045D01*
X011731Y001986D02*
X011701Y001986D01*
X011534Y002045D02*
X011534Y001819D01*
X011504Y001819D01*
X011504Y002045D01*
X011534Y002045D01*
X011534Y001986D02*
X011504Y001986D01*
X011346Y002045D02*
X011346Y001819D01*
X011316Y001819D01*
X011316Y002045D01*
X011346Y002045D01*
X011346Y001986D02*
X011316Y001986D01*
X011119Y002045D02*
X011119Y001819D01*
X011119Y002045D02*
X011149Y002045D01*
X011149Y001819D01*
X011119Y001819D01*
X011119Y001986D02*
X011149Y001986D01*
X010922Y002045D02*
X010922Y001819D01*
X010922Y002045D02*
X010952Y002045D01*
X010952Y001819D01*
X010922Y001819D01*
X010922Y001986D02*
X010952Y001986D01*
X010733Y002045D02*
X010733Y001819D01*
X010733Y002045D02*
X010763Y002045D01*
X010763Y001819D01*
X010733Y001819D01*
X010733Y001986D02*
X010763Y001986D01*
X010537Y002045D02*
X010537Y001819D01*
X010537Y002045D02*
X010567Y002045D01*
X010567Y001819D01*
X010537Y001819D01*
X010537Y001986D02*
X010567Y001986D01*
X010348Y002045D02*
X010348Y001819D01*
X010348Y002045D02*
X010378Y002045D01*
X010378Y001819D01*
X010348Y001819D01*
X010348Y001986D02*
X010378Y001986D01*
X010151Y002045D02*
X010151Y001819D01*
X010151Y002045D02*
X010181Y002045D01*
X010181Y001819D01*
X010151Y001819D01*
X010151Y001986D02*
X010181Y001986D01*
D17*
X006917Y003044D03*
X005894Y003044D03*
X005894Y003418D03*
X005894Y003792D03*
X006917Y003792D03*
D18*
X006926Y005966D03*
X006426Y005966D03*
X007426Y005966D03*
X007926Y005966D03*
X008426Y005966D03*
X008926Y005966D03*
X009426Y005966D03*
X009926Y005966D03*
X010426Y005966D03*
X010926Y005966D03*
X011426Y005966D03*
X011926Y005966D03*
X012426Y005966D03*
X012926Y005966D03*
X013426Y005466D03*
X013426Y004966D03*
X013426Y004466D03*
X013426Y003966D03*
X013426Y003466D03*
X013426Y002966D03*
X012926Y000966D03*
X011926Y000966D03*
X011426Y000966D03*
X010926Y000966D03*
X010426Y000966D03*
X009926Y000966D03*
X009426Y000966D03*
X008926Y000966D03*
X008426Y000966D03*
X007926Y000966D03*
X007426Y000966D03*
X006926Y000966D03*
X006426Y000966D03*
X005926Y000966D03*
X005426Y000966D03*
X004926Y000966D03*
D19*
X006061Y002434D03*
X007144Y002434D03*
X007144Y004403D03*
X006061Y004403D03*
D20*
X007508Y003618D03*
X008020Y003618D03*
X008020Y003218D03*
X007508Y003218D03*
X003928Y003103D03*
X003528Y003103D03*
X003528Y003615D03*
X003928Y003615D03*
X003928Y004245D03*
X003528Y004245D03*
X003528Y004757D03*
X003928Y004757D03*
X005930Y005190D03*
X006330Y005190D03*
X006993Y005190D03*
X007393Y005190D03*
D21*
X008059Y005092D03*
X008571Y005092D03*
X008571Y004501D03*
X008059Y004501D03*
D22*
X007235Y001844D03*
X006835Y001844D03*
D23*
X002843Y005859D03*
X002331Y005859D03*
X001386Y005859D03*
X000874Y005859D03*
D24*
X004398Y002201D03*
X004398Y001801D03*
D25*
X002705Y001312D03*
X003177Y001312D03*
X003689Y001312D03*
X003689Y001824D03*
X003177Y001824D03*
X002705Y001824D03*
D26*
X005028Y003084D03*
X005028Y003753D03*
M02*
