G75*
%MOIN*%
%OFA0B0*%
%FSLAX24Y24*%
%IPPOS*%
%LPD*%
%AMOC8*
5,1,8,0,0,1.08239X$1,22.5*
%
%ADD10C,0.0000*%
%ADD11C,0.0030*%
%ADD12C,0.0050*%
%ADD13C,0.0080*%
%ADD14R,0.0300X0.0050*%
%ADD15C,0.0060*%
D10*
X000421Y000249D02*
X000421Y006766D01*
X013577Y006766D01*
X013578Y006766D02*
X013616Y006768D01*
X013654Y006766D01*
X013692Y006761D01*
X013729Y006752D01*
X013765Y006739D01*
X013800Y006723D01*
X013833Y006703D01*
X013864Y006680D01*
X013892Y006655D01*
X013918Y006626D01*
X013941Y006596D01*
X013960Y006563D01*
X013977Y006528D01*
X013990Y006492D01*
X013999Y006455D01*
X014005Y006417D01*
X014004Y006417D02*
X014004Y000652D01*
X014005Y000651D02*
X014001Y000612D01*
X013994Y000574D01*
X013983Y000536D01*
X013969Y000500D01*
X013951Y000465D01*
X013931Y000432D01*
X013907Y000401D01*
X013881Y000372D01*
X013852Y000345D01*
X013821Y000322D01*
X013788Y000301D01*
X013753Y000284D01*
X013716Y000270D01*
X013679Y000259D01*
X013640Y000252D01*
X013601Y000248D01*
X013562Y000248D01*
X013562Y000249D02*
X000421Y000249D01*
D11*
X001775Y000566D02*
X001832Y000566D01*
X001803Y000622D02*
X001803Y000481D01*
X001898Y000509D02*
X001898Y000566D01*
X001926Y000594D01*
X001983Y000594D01*
X002011Y000566D01*
X002011Y000537D01*
X001898Y000537D01*
X001898Y000509D02*
X001926Y000481D01*
X001983Y000481D01*
X002082Y000481D02*
X002082Y000594D01*
X002110Y000594D01*
X002138Y000566D01*
X002167Y000594D01*
X002195Y000566D01*
X002195Y000481D01*
X002138Y000481D02*
X002138Y000566D01*
X002266Y000594D02*
X002323Y000594D01*
X002294Y000622D02*
X002294Y000509D01*
X002323Y000481D01*
X002389Y000509D02*
X002417Y000481D01*
X002474Y000481D01*
X002502Y000509D01*
X002502Y000566D01*
X002474Y000594D01*
X002417Y000594D01*
X002389Y000566D01*
X002389Y000509D01*
X002573Y000509D02*
X002601Y000481D01*
X002686Y000481D01*
X002686Y000651D01*
X002686Y000594D02*
X002601Y000594D01*
X002573Y000566D01*
X002573Y000509D01*
X002757Y000509D02*
X002785Y000481D01*
X002870Y000481D01*
X002870Y000594D01*
X002941Y000594D02*
X002970Y000594D01*
X002970Y000481D01*
X002998Y000481D02*
X002941Y000481D01*
X003064Y000481D02*
X003064Y000594D01*
X003149Y000594D01*
X003177Y000566D01*
X003177Y000481D01*
X003248Y000509D02*
X003276Y000481D01*
X003333Y000481D01*
X003362Y000509D01*
X003362Y000566D01*
X003333Y000594D01*
X003276Y000594D01*
X003248Y000566D01*
X003248Y000509D01*
X003432Y000509D02*
X003432Y000481D01*
X003461Y000481D01*
X003461Y000509D01*
X003432Y000509D01*
X003524Y000509D02*
X003553Y000481D01*
X003638Y000481D01*
X003708Y000509D02*
X003737Y000481D01*
X003794Y000481D01*
X003822Y000509D01*
X003822Y000566D01*
X003794Y000594D01*
X003737Y000594D01*
X003708Y000566D01*
X003708Y000509D01*
X003638Y000594D02*
X003553Y000594D01*
X003524Y000566D01*
X003524Y000509D01*
X003533Y000756D02*
X003618Y000756D01*
X003646Y000785D01*
X003646Y000813D01*
X003618Y000841D01*
X003533Y000841D01*
X003462Y000841D02*
X003434Y000870D01*
X003377Y000870D01*
X003349Y000841D01*
X003349Y000785D01*
X003377Y000756D01*
X003434Y000756D01*
X003462Y000785D01*
X003462Y000841D01*
X003533Y000756D02*
X003533Y000926D01*
X003618Y000926D01*
X003646Y000898D01*
X003646Y000870D01*
X003618Y000841D01*
X003717Y000756D02*
X003831Y000756D01*
X003901Y000756D02*
X004015Y000756D01*
X003958Y000841D02*
X003901Y000841D01*
X003901Y000926D02*
X003901Y000756D01*
X003717Y000756D02*
X003717Y000926D01*
X003901Y000926D02*
X004015Y000926D01*
X003978Y000594D02*
X004006Y000566D01*
X004006Y000481D01*
X003949Y000481D02*
X003949Y000566D01*
X003978Y000594D01*
X003949Y000566D02*
X003921Y000594D01*
X003893Y000594D01*
X003893Y000481D01*
X004513Y000481D02*
X004573Y000541D01*
X004613Y000541D01*
X004693Y000461D01*
X004693Y000421D01*
X004633Y000361D01*
X004513Y000481D01*
X004643Y000611D02*
X004703Y000671D01*
X004743Y000671D01*
X004823Y000591D01*
X004823Y000551D01*
X004763Y000491D01*
X004643Y000611D01*
X005024Y000481D02*
X005085Y000541D01*
X005125Y000541D01*
X005205Y000461D01*
X005205Y000421D01*
X005145Y000361D01*
X005024Y000481D01*
X005175Y000591D02*
X005255Y000511D01*
X005295Y000511D01*
X005335Y000551D01*
X005335Y000591D01*
X005255Y000671D02*
X005215Y000671D01*
X005175Y000631D01*
X005175Y000591D01*
X005536Y000481D02*
X005596Y000541D01*
X005637Y000541D01*
X005677Y000501D01*
X005677Y000461D01*
X005616Y000401D01*
X005657Y000441D02*
X005737Y000441D01*
X005767Y000511D02*
X005807Y000511D01*
X005847Y000551D01*
X005847Y000591D01*
X005827Y000611D01*
X005787Y000611D01*
X005747Y000571D01*
X005707Y000571D01*
X005687Y000591D01*
X005687Y000631D01*
X005727Y000671D01*
X005767Y000671D01*
X006068Y000501D02*
X006108Y000541D01*
X006148Y000541D01*
X006168Y000481D02*
X006208Y000481D01*
X006229Y000461D01*
X006229Y000421D01*
X006188Y000381D01*
X006148Y000381D01*
X006128Y000441D02*
X006088Y000441D01*
X006068Y000461D01*
X006068Y000501D01*
X006128Y000441D02*
X006168Y000481D01*
X006218Y000571D02*
X006258Y000571D01*
X006299Y000611D01*
X006339Y000611D01*
X006359Y000591D01*
X006359Y000551D01*
X006319Y000511D01*
X006279Y000511D01*
X006218Y000571D02*
X006198Y000591D01*
X006198Y000631D01*
X006238Y000671D01*
X006279Y000671D01*
X006640Y000561D02*
X006760Y000441D01*
X006790Y000511D02*
X006830Y000511D01*
X006871Y000551D01*
X006871Y000591D01*
X006790Y000671D01*
X006750Y000671D01*
X006710Y000631D01*
X006710Y000591D01*
X006790Y000511D01*
X006640Y000481D02*
X006640Y000561D01*
X006640Y000481D02*
X006560Y000481D01*
X006680Y000361D01*
X007011Y000470D02*
X007039Y000441D01*
X007096Y000441D01*
X007124Y000470D01*
X007124Y000498D01*
X007096Y000526D01*
X007039Y000526D01*
X007011Y000555D01*
X007011Y000583D01*
X007039Y000611D01*
X007096Y000611D01*
X007124Y000583D01*
X007195Y000583D02*
X007195Y000470D01*
X007224Y000441D01*
X007280Y000441D01*
X007309Y000470D01*
X007379Y000498D02*
X007493Y000611D01*
X007379Y000611D02*
X007379Y000441D01*
X007408Y000526D02*
X007493Y000441D01*
X007588Y000524D02*
X007668Y000524D01*
X007668Y000604D01*
X007788Y000484D01*
X007838Y000534D02*
X007878Y000574D01*
X007858Y000554D02*
X007738Y000675D01*
X007718Y000655D02*
X007758Y000695D01*
X007588Y000524D02*
X007708Y000404D01*
X008056Y000481D02*
X008116Y000541D01*
X008156Y000541D01*
X008236Y000461D01*
X008236Y000421D01*
X008176Y000361D01*
X008056Y000481D01*
X008186Y000611D02*
X008246Y000551D01*
X008266Y000611D01*
X008286Y000631D01*
X008327Y000631D01*
X008367Y000591D01*
X008367Y000551D01*
X008327Y000511D01*
X008286Y000511D01*
X008186Y000611D02*
X008266Y000691D01*
X008568Y000481D02*
X008628Y000541D01*
X008668Y000541D01*
X008748Y000461D01*
X008748Y000421D01*
X008688Y000361D01*
X008568Y000481D01*
X008758Y000551D02*
X008818Y000611D01*
X008858Y000611D01*
X008878Y000591D01*
X008878Y000551D01*
X008838Y000511D01*
X008798Y000511D01*
X008758Y000551D01*
X008758Y000631D01*
X008778Y000691D01*
X009040Y000481D02*
X009100Y000541D01*
X009140Y000541D01*
X009221Y000461D01*
X009221Y000421D01*
X009161Y000361D01*
X009040Y000481D01*
X009170Y000611D02*
X009251Y000691D01*
X009271Y000671D01*
X009271Y000511D01*
X009291Y000491D01*
X009552Y000481D02*
X009672Y000361D01*
X009732Y000421D01*
X009732Y000461D01*
X009652Y000541D01*
X009612Y000541D01*
X009552Y000481D01*
X009702Y000591D02*
X009722Y000571D01*
X009762Y000571D01*
X009803Y000611D01*
X009843Y000611D01*
X009863Y000591D01*
X009863Y000551D01*
X009823Y000511D01*
X009782Y000511D01*
X009762Y000531D01*
X009762Y000571D01*
X009803Y000611D02*
X009803Y000651D01*
X009782Y000671D01*
X009742Y000671D01*
X009702Y000631D01*
X009702Y000591D01*
X010064Y000481D02*
X010124Y000541D01*
X010164Y000541D01*
X010244Y000461D01*
X010244Y000421D01*
X010184Y000361D01*
X010064Y000481D01*
X010214Y000591D02*
X010234Y000571D01*
X010274Y000571D01*
X010334Y000631D01*
X010294Y000671D02*
X010375Y000591D01*
X010375Y000551D01*
X010334Y000511D01*
X010294Y000511D01*
X010214Y000591D02*
X010214Y000631D01*
X010254Y000671D01*
X010294Y000671D01*
X010633Y000611D02*
X010718Y000611D01*
X010747Y000583D01*
X010747Y000470D01*
X010718Y000441D01*
X010633Y000441D01*
X010633Y000611D01*
X010817Y000555D02*
X010874Y000611D01*
X010874Y000441D01*
X010817Y000441D02*
X010931Y000441D01*
X011001Y000470D02*
X011115Y000583D01*
X011115Y000470D01*
X011086Y000441D01*
X011030Y000441D01*
X011001Y000470D01*
X011001Y000583D01*
X011030Y000611D01*
X011086Y000611D01*
X011115Y000583D01*
X011342Y000611D02*
X011427Y000611D01*
X011455Y000583D01*
X011455Y000470D01*
X011427Y000441D01*
X011342Y000441D01*
X011342Y000611D01*
X011526Y000555D02*
X011583Y000611D01*
X011583Y000441D01*
X011639Y000441D02*
X011526Y000441D01*
X011710Y000441D02*
X011824Y000441D01*
X011767Y000441D02*
X011767Y000611D01*
X011710Y000555D01*
X012011Y000611D02*
X012011Y000441D01*
X012096Y000441D01*
X012124Y000470D01*
X012124Y000583D01*
X012096Y000611D01*
X012011Y000611D01*
X012195Y000555D02*
X012252Y000611D01*
X012252Y000441D01*
X012195Y000441D02*
X012309Y000441D01*
X012379Y000441D02*
X012493Y000555D01*
X012493Y000583D01*
X012464Y000611D01*
X012408Y000611D01*
X012379Y000583D01*
X012379Y000441D02*
X012493Y000441D01*
X012720Y000441D02*
X012720Y000611D01*
X012720Y000526D02*
X012833Y000526D01*
X012833Y000611D02*
X012833Y000441D01*
X012904Y000441D02*
X012961Y000498D01*
X013017Y000441D01*
X013017Y000611D01*
X013088Y000611D02*
X013173Y000611D01*
X013201Y000583D01*
X013201Y000555D01*
X013173Y000526D01*
X013088Y000526D01*
X013088Y000441D02*
X013173Y000441D01*
X013201Y000470D01*
X013201Y000498D01*
X013173Y000526D01*
X013088Y000441D02*
X013088Y000611D01*
X012904Y000611D02*
X012904Y000441D01*
X013315Y001398D02*
X013372Y001398D01*
X013400Y001426D01*
X013400Y001540D01*
X013372Y001568D01*
X013315Y001568D01*
X013287Y001540D01*
X013287Y001511D01*
X013315Y001483D01*
X013400Y001483D01*
X013315Y001398D02*
X013287Y001426D01*
X013287Y001698D02*
X013287Y001811D01*
X013287Y001755D02*
X013344Y001811D01*
X013372Y001811D01*
X013440Y001783D02*
X013469Y001811D01*
X013526Y001811D01*
X013554Y001783D01*
X013554Y001755D01*
X013440Y001755D01*
X013440Y001783D02*
X013440Y001726D01*
X013469Y001698D01*
X013526Y001698D01*
X013625Y001811D02*
X013681Y001698D01*
X013738Y001811D01*
X013809Y001811D02*
X013809Y001783D01*
X013837Y001783D01*
X013837Y001811D01*
X013809Y001811D01*
X013809Y001726D02*
X013809Y001698D01*
X013837Y001698D01*
X013837Y001726D01*
X013809Y001726D01*
X013740Y002725D02*
X013740Y002810D01*
X013768Y002838D01*
X013882Y002838D01*
X013910Y002810D01*
X013910Y002725D01*
X013740Y002725D01*
X013797Y002909D02*
X013740Y002966D01*
X013910Y002966D01*
X013910Y003022D02*
X013910Y002909D01*
X013882Y003093D02*
X013910Y003121D01*
X013910Y003178D01*
X013882Y003206D01*
X013853Y003206D01*
X013825Y003178D01*
X013825Y003150D01*
X013825Y003178D02*
X013797Y003206D01*
X013768Y003206D01*
X013740Y003178D01*
X013740Y003121D01*
X013768Y003093D01*
X013797Y003630D02*
X013740Y003687D01*
X013797Y003744D01*
X013910Y003744D01*
X013910Y003814D02*
X013740Y003814D01*
X013740Y003899D01*
X013768Y003928D01*
X013825Y003928D01*
X013853Y003899D01*
X013853Y003814D01*
X013853Y003871D02*
X013910Y003928D01*
X013910Y003999D02*
X013740Y003999D01*
X013740Y004112D01*
X013740Y004183D02*
X013740Y004296D01*
X013825Y004239D02*
X013825Y004183D01*
X013910Y004183D02*
X013740Y004183D01*
X013825Y004055D02*
X013825Y003999D01*
X013910Y003999D02*
X013910Y004112D01*
X013825Y003744D02*
X013825Y003630D01*
X013797Y003630D02*
X013910Y003630D01*
X013910Y004811D02*
X013797Y004811D01*
X013740Y004868D01*
X013797Y004925D01*
X013910Y004925D01*
X013882Y004995D02*
X013768Y004995D01*
X013740Y005024D01*
X013740Y005081D01*
X013768Y005109D01*
X013882Y004995D01*
X013910Y005024D01*
X013910Y005081D01*
X013882Y005109D01*
X013768Y005109D01*
X013825Y004925D02*
X013825Y004811D01*
X013825Y005323D02*
X013825Y005437D01*
X013797Y005437D02*
X013910Y005437D01*
X013910Y005507D02*
X013910Y005621D01*
X013910Y005564D02*
X013740Y005564D01*
X013797Y005507D01*
X013797Y005437D02*
X013740Y005380D01*
X013797Y005323D01*
X013910Y005323D01*
X012823Y006314D02*
X012743Y006394D01*
X012743Y006474D01*
X012823Y006474D01*
X012903Y006394D01*
X012953Y006444D02*
X012953Y006604D01*
X012933Y006624D01*
X012893Y006624D01*
X012853Y006584D01*
X012853Y006544D01*
X012843Y006454D02*
X012763Y006374D01*
X012953Y006444D02*
X013033Y006524D01*
X012501Y006504D02*
X012461Y006464D01*
X012421Y006464D01*
X012391Y006394D02*
X012311Y006474D01*
X012231Y006474D01*
X012231Y006394D01*
X012311Y006314D01*
X012251Y006374D02*
X012331Y006454D01*
X012341Y006544D02*
X012341Y006584D01*
X012381Y006624D01*
X012421Y006624D01*
X012441Y006604D01*
X012441Y006564D01*
X012481Y006564D01*
X012501Y006544D01*
X012501Y006504D01*
X012441Y006564D02*
X012421Y006544D01*
X012068Y006504D02*
X011948Y006624D01*
X011948Y006504D01*
X012028Y006584D01*
X011898Y006454D02*
X011818Y006374D01*
X011798Y006394D02*
X011798Y006474D01*
X011878Y006474D01*
X011958Y006394D01*
X011878Y006314D02*
X011798Y006394D01*
X011635Y006504D02*
X011595Y006464D01*
X011555Y006464D01*
X011515Y006504D02*
X011535Y006564D01*
X011555Y006584D01*
X011595Y006584D01*
X011635Y006544D01*
X011635Y006504D01*
X011515Y006504D02*
X011455Y006564D01*
X011535Y006644D01*
X011445Y006474D02*
X011365Y006474D01*
X011365Y006394D01*
X011445Y006314D01*
X011385Y006374D02*
X011465Y006454D01*
X011445Y006474D02*
X011525Y006394D01*
X011272Y006478D02*
X011159Y006478D01*
X011216Y006478D02*
X011216Y006307D01*
X011088Y006336D02*
X011088Y006364D01*
X011060Y006392D01*
X011003Y006392D01*
X010975Y006421D01*
X010975Y006449D01*
X011003Y006478D01*
X011060Y006478D01*
X011088Y006449D01*
X010904Y006449D02*
X010904Y006392D01*
X010876Y006364D01*
X010791Y006364D01*
X010847Y006364D02*
X010904Y006307D01*
X010975Y006336D02*
X011003Y006307D01*
X011060Y006307D01*
X011088Y006336D01*
X010904Y006449D02*
X010876Y006478D01*
X010791Y006478D01*
X010791Y006307D01*
X010642Y006307D02*
X010586Y006364D01*
X010614Y006364D02*
X010529Y006364D01*
X010529Y006307D02*
X010529Y006478D01*
X010614Y006478D01*
X010642Y006449D01*
X010642Y006392D01*
X010614Y006364D01*
X010458Y006478D02*
X010345Y006478D01*
X010402Y006478D02*
X010402Y006307D01*
X010274Y006336D02*
X010274Y006449D01*
X010246Y006478D01*
X010161Y006478D01*
X010161Y006307D01*
X010246Y006307D01*
X010274Y006336D01*
X010000Y006444D02*
X009960Y006644D01*
X009880Y006564D02*
X010081Y006524D01*
X009890Y006454D02*
X009890Y006414D01*
X009830Y006354D01*
X009870Y006394D02*
X009950Y006394D01*
X009890Y006454D02*
X009850Y006494D01*
X009810Y006494D01*
X009750Y006434D01*
X009870Y006314D01*
X009608Y006524D02*
X009408Y006564D01*
X009358Y006514D02*
X009277Y006434D01*
X009317Y006474D02*
X009438Y006354D01*
X009528Y006444D02*
X009488Y006644D01*
X009096Y006524D02*
X009016Y006444D01*
X009016Y006604D01*
X008996Y006624D01*
X008956Y006624D01*
X008916Y006584D01*
X008916Y006544D01*
X008866Y006494D02*
X008826Y006494D01*
X008766Y006434D01*
X008886Y006314D01*
X008946Y006374D01*
X008946Y006414D01*
X008866Y006494D01*
X008604Y006504D02*
X008564Y006464D01*
X008524Y006464D01*
X008474Y006414D02*
X008393Y006494D01*
X008353Y006494D01*
X008293Y006434D01*
X008413Y006314D01*
X008474Y006374D01*
X008474Y006414D01*
X008443Y006544D02*
X008443Y006584D01*
X008483Y006624D01*
X008524Y006624D01*
X008544Y006604D01*
X008544Y006564D01*
X008584Y006564D01*
X008604Y006544D01*
X008604Y006504D01*
X008544Y006564D02*
X008524Y006544D01*
X008131Y006504D02*
X008011Y006624D01*
X008011Y006504D01*
X008091Y006584D01*
X007921Y006494D02*
X007881Y006494D01*
X007821Y006434D01*
X007941Y006314D01*
X008001Y006374D01*
X008001Y006414D01*
X007921Y006494D01*
X007729Y006449D02*
X007701Y006478D01*
X007644Y006478D01*
X007616Y006449D01*
X007616Y006336D01*
X007644Y006307D01*
X007701Y006307D01*
X007729Y006336D01*
X007545Y006336D02*
X007517Y006307D01*
X007460Y006307D01*
X007431Y006336D01*
X007431Y006449D01*
X007460Y006478D01*
X007517Y006478D01*
X007545Y006449D01*
X007361Y006478D02*
X007361Y006364D01*
X007304Y006307D01*
X007247Y006364D01*
X007247Y006478D01*
X007099Y006449D02*
X007071Y006478D01*
X006986Y006478D01*
X006986Y006307D01*
X007071Y006307D01*
X007099Y006336D01*
X007099Y006449D01*
X006915Y006478D02*
X006915Y006307D01*
X006802Y006478D01*
X006802Y006307D01*
X006731Y006336D02*
X006731Y006392D01*
X006674Y006392D01*
X006617Y006336D02*
X006646Y006307D01*
X006702Y006307D01*
X006731Y006336D01*
X006617Y006336D02*
X006617Y006449D01*
X006646Y006478D01*
X006702Y006478D01*
X006731Y006449D01*
X006487Y006478D02*
X006487Y006307D01*
X006373Y006478D01*
X006373Y006307D01*
X006307Y006307D02*
X006250Y006307D01*
X006279Y006307D02*
X006279Y006478D01*
X006307Y006478D02*
X006250Y006478D01*
X006180Y006478D02*
X006180Y006364D01*
X006123Y006307D01*
X006066Y006364D01*
X006066Y006478D01*
X006145Y001438D02*
X006230Y001438D01*
X006258Y001410D01*
X006258Y001296D01*
X006230Y001268D01*
X006145Y001268D01*
X006145Y001438D01*
X006329Y001381D02*
X006386Y001438D01*
X006386Y001268D01*
X006329Y001268D02*
X006443Y001268D01*
X006513Y001268D02*
X006513Y001296D01*
X006627Y001410D01*
X006627Y001438D01*
X006513Y001438D01*
X006735Y001438D02*
X006735Y001268D01*
X006821Y001268D01*
X006849Y001296D01*
X006849Y001410D01*
X006821Y001438D01*
X006735Y001438D01*
X006920Y001381D02*
X006976Y001438D01*
X006976Y001268D01*
X006920Y001268D02*
X007033Y001268D01*
X007104Y001296D02*
X007132Y001268D01*
X007189Y001268D01*
X007217Y001296D01*
X007217Y001325D01*
X007189Y001353D01*
X007104Y001353D01*
X007104Y001296D01*
X007104Y001353D02*
X007161Y001410D01*
X007217Y001438D01*
X007326Y001438D02*
X007411Y001438D01*
X007439Y001410D01*
X007439Y001296D01*
X007411Y001268D01*
X007326Y001268D01*
X007326Y001438D01*
X007510Y001381D02*
X007567Y001438D01*
X007567Y001268D01*
X007510Y001268D02*
X007624Y001268D01*
X007694Y001296D02*
X007723Y001268D01*
X007779Y001268D01*
X007808Y001296D01*
X007808Y001353D01*
X007779Y001381D01*
X007751Y001381D01*
X007694Y001353D01*
X007694Y001438D01*
X007808Y001438D01*
X007956Y001438D02*
X008041Y001438D01*
X008069Y001410D01*
X008069Y001296D01*
X008041Y001268D01*
X007956Y001268D01*
X007956Y001438D01*
X008140Y001381D02*
X008197Y001438D01*
X008197Y001268D01*
X008140Y001268D02*
X008254Y001268D01*
X008324Y001353D02*
X008438Y001353D01*
X008409Y001268D02*
X008409Y001438D01*
X008324Y001353D01*
X007309Y000583D02*
X007280Y000611D01*
X007224Y000611D01*
X007195Y000583D01*
X005657Y000361D02*
X005536Y000481D01*
X005529Y001268D02*
X005642Y001268D01*
X005586Y001353D02*
X005529Y001353D01*
X005529Y001438D02*
X005529Y001268D01*
X005458Y001268D02*
X005345Y001268D01*
X005345Y001438D01*
X005274Y001410D02*
X005274Y001381D01*
X005246Y001353D01*
X005161Y001353D01*
X005246Y001353D02*
X005274Y001325D01*
X005274Y001296D01*
X005246Y001268D01*
X005161Y001268D01*
X005161Y001438D01*
X005246Y001438D01*
X005274Y001410D01*
X005529Y001438D02*
X005642Y001438D01*
X003278Y000841D02*
X003278Y000756D01*
X003278Y000841D02*
X003250Y000870D01*
X003165Y000870D01*
X003165Y000756D01*
X003099Y000756D02*
X003042Y000756D01*
X003070Y000756D02*
X003070Y000870D01*
X003042Y000870D01*
X003070Y000926D02*
X003070Y000955D01*
X002971Y000870D02*
X002971Y000756D01*
X002886Y000756D01*
X002858Y000785D01*
X002858Y000870D01*
X002787Y000870D02*
X002702Y000870D01*
X002674Y000841D01*
X002674Y000785D01*
X002702Y000756D01*
X002787Y000756D01*
X002787Y000926D01*
X002603Y000841D02*
X002575Y000870D01*
X002518Y000870D01*
X002489Y000841D01*
X002489Y000785D01*
X002518Y000756D01*
X002575Y000756D01*
X002603Y000785D01*
X002603Y000841D01*
X002423Y000870D02*
X002367Y000870D01*
X002395Y000898D02*
X002395Y000785D01*
X002423Y000756D01*
X002296Y000756D02*
X002296Y000841D01*
X002268Y000870D01*
X002239Y000841D01*
X002239Y000756D01*
X002183Y000756D02*
X002183Y000870D01*
X002211Y000870D01*
X002239Y000841D01*
X002112Y000841D02*
X002083Y000870D01*
X002027Y000870D01*
X001998Y000841D01*
X001998Y000785D01*
X002027Y000756D01*
X002083Y000756D01*
X002112Y000813D02*
X001998Y000813D01*
X002112Y000813D02*
X002112Y000841D01*
X001928Y000926D02*
X001814Y000926D01*
X001814Y000756D01*
X001814Y000841D02*
X001871Y000841D01*
X001832Y000651D02*
X001803Y000622D01*
X002757Y000594D02*
X002757Y000509D01*
X002970Y000651D02*
X002970Y000679D01*
D12*
X004201Y000308D02*
X004634Y000741D01*
X004634Y000781D01*
X004634Y001135D02*
X004634Y001292D01*
X004988Y001292D01*
X004598Y001501D02*
X004198Y001501D01*
X004198Y002501D01*
X004598Y002501D01*
X004598Y001501D01*
X005776Y001292D02*
X006051Y001292D01*
X006051Y001253D01*
X006635Y001644D02*
X006635Y002044D01*
X007435Y002044D01*
X007435Y001644D01*
X006635Y001644D01*
X006091Y000702D02*
X006091Y000662D01*
X005736Y000308D01*
D13*
X003939Y001068D02*
X003939Y002068D01*
X003439Y002068D01*
X003439Y001068D01*
X003939Y001068D01*
X003427Y001068D02*
X003427Y002068D01*
X002927Y002068D01*
X002927Y001068D01*
X003427Y001068D01*
X002955Y001068D02*
X002955Y002068D01*
X002455Y002068D01*
X002455Y001068D01*
X002955Y001068D01*
X005597Y002040D02*
X005597Y002080D01*
X005597Y002088D02*
X005597Y002828D01*
X007607Y002828D01*
X007607Y002040D01*
X005597Y002040D01*
X006527Y002259D02*
X006527Y002609D01*
X006677Y002609D02*
X006527Y002434D01*
X006677Y002259D01*
X006677Y002609D01*
X006720Y002848D02*
X006091Y002848D01*
X006720Y003241D02*
X006720Y003596D01*
X007289Y003835D02*
X007727Y003835D01*
X007727Y003002D01*
X007289Y003002D01*
X007289Y003835D01*
X007607Y004009D02*
X007607Y004748D01*
X007607Y004757D02*
X007607Y004796D01*
X005597Y004796D01*
X005597Y004009D01*
X007607Y004009D01*
X007801Y003835D02*
X008238Y003835D01*
X008238Y003002D01*
X007801Y003002D01*
X007801Y003835D01*
X006720Y003989D02*
X006091Y003989D01*
X006527Y004228D02*
X006677Y004403D01*
X006527Y004578D01*
X006527Y004228D01*
X006677Y004228D02*
X006677Y004578D01*
X006777Y004971D02*
X006777Y005409D01*
X007609Y005409D01*
X007609Y004971D01*
X006777Y004971D01*
X006546Y004971D02*
X006546Y005409D01*
X005714Y005409D01*
X005714Y004971D01*
X006546Y004971D01*
X005303Y004048D02*
X005303Y002788D01*
X004752Y002788D01*
X004752Y004048D01*
X005303Y004048D01*
X004145Y004026D02*
X003312Y004026D01*
X003312Y004464D01*
X004145Y004464D01*
X004145Y004026D01*
X004145Y003834D02*
X004145Y003396D01*
X003312Y003396D01*
X003312Y003834D01*
X004145Y003834D01*
X004145Y003322D02*
X003312Y003322D01*
X003312Y002885D01*
X004145Y002885D01*
X004145Y003322D01*
X004145Y004538D02*
X003312Y004538D01*
X003312Y004976D01*
X004145Y004976D01*
X004145Y004538D01*
X003087Y005609D02*
X002087Y005609D01*
X002087Y006109D01*
X003087Y006109D01*
X003087Y005609D01*
X001630Y005609D02*
X000630Y005609D01*
X000630Y006109D01*
X001630Y006109D01*
X001630Y005609D01*
X009756Y004623D02*
X009756Y004466D01*
X009756Y004623D02*
X009913Y004623D01*
X012315Y004623D02*
X012512Y004426D01*
X012512Y002025D02*
X012512Y001867D01*
X012354Y001867D01*
X009913Y001867D02*
X009756Y001867D01*
X009756Y002025D01*
D14*
X008571Y004716D03*
X008059Y004716D03*
D15*
X008059Y004741D02*
X007959Y004866D01*
X008159Y004866D01*
X008059Y004741D01*
X008018Y004792D02*
X008100Y004792D01*
X008147Y004851D02*
X007971Y004851D01*
X008471Y004866D02*
X008571Y004741D01*
X008671Y004866D01*
X008471Y004866D01*
X008483Y004851D02*
X008659Y004851D01*
X008612Y004792D02*
X008530Y004792D01*
M02*
