%
M48
M72
T01C0.0079
T02C0.0276
%
T01
X1524Y820
X1760Y1332
X4251Y505
X4437Y1332
X4791Y1529
X5185Y1647
X5461Y1765
X6248Y1725
X6484Y1922
X7626Y1725
X8059Y1647
X8492Y1568
X8807Y1568
X9319Y1529
X9634Y1489
X9949Y1489
X11760Y2277
X12081Y2552
X11839Y2710
X12075Y2879
X11917Y3300
X11701Y3497
X11434Y3694
X11602Y3970
X11298Y3980
X11111Y4206
X12114Y4009
X12067Y3712
X12823Y4206
X12547Y4718
X13059Y4757
X12429Y5033
X13059Y5229
X12429Y5426
X13453Y5938
X13492Y6371
X11331Y5466
X10500Y5190
X10382Y4914
X9949Y4875
X9437Y5052
X9988Y5190
X11130Y4914
X9516Y4521
X9319Y4245
X8650Y4009
X9201Y3615
X8886Y3340
X8413Y3418
X8650Y3064
X9437Y2749
X9240Y2513
X10185Y2474
X10382Y2867
X10185Y3103
X10894Y2710
X11012Y3143
X10264Y3536
X7862Y4166
X6484Y3418
X4988Y2670
X4634Y3029
X4221Y2669
X2744Y3300
X2941Y3615
X4339Y3891
X4909Y4245
X4516Y4836
X4516Y5151
X2902Y4914
X2902Y4560
X2193Y5387
X1720Y5387
X1169Y6450
X697Y6450
X4358Y6292
X2429Y2828
X12547Y1332
X12783Y1804
X12783Y2434
X13059Y2552
X13492Y2434
X12931Y2869
X12931Y3234
T02
X13426Y3466
X13426Y2966
X13426Y3966
X13426Y4466
X13426Y4966
X13426Y5466
X12926Y5966
X12426Y5966
X11926Y5966
X11426Y5966
X10926Y5966
X10426Y5966
X9926Y5966
X9426Y5966
X8926Y5966
X8426Y5966
X7926Y5966
X7426Y5966
X6926Y5966
X6426Y5966
X6426Y966
X6926Y966
X7426Y966
X7926Y966
X8426Y966
X8926Y966
X9426Y966
X9926Y966
X10426Y966
X10926Y966
X11426Y966
X11926Y966
X12926Y966
X5926Y966
X5426Y966
X4926Y966
M30
